{
  "accessors": [
    {
      "bufferView": 2,
      "componentType": 5126,
      "count": 18979,
      "max": [
        0.38648250699043274,
        0.32065659761428833,
        0.7825974822044373
      ],
      "min": [
        -0.3471889793872833,
        -0.5050088167190552,
        -0.030295278877019882
      ],
      "type": "VEC3"
    },
    {
      "bufferView": 2,
      "byteOffset": 227748,
      "componentType": 5126,
      "count": 18979,
      "max": [
        0.9999312162399292,
        1.0,
        0.9999998807907104
      ],
      "min": [
        -0.9999993443489075,
        -1.0,
        -1.0
      ],
      "type": "VEC3"
    },
    {
      "bufferView": 1,
      "componentType": 5126,
      "count": 18979,
      "max": [
        1.000000238418579,
        1.000000238418579
      ],
      "min": [
        0.0,
        0.0
      ],
      "type": "VEC2"
    },
    {
      "bufferView": 0,
      "componentType": 5125,
      "count": 105600,
      "type": "SCALAR"
    },
    {
      "bufferView": 2,
      "byteOffset": 455496,
      "componentType": 5126,
      "count": 4096,
      "max": [
        0.21660511195659637,
        0.21660511195659637,
        0.058924272656440735
      ],
      "min": [
        -0.21660511195659637,
        -0.21660511195659637,
        0.00018612845451571047
      ],
      "type": "VEC3"
    },
    {
      "bufferView": 2,
      "byteOffset": 504648,
      "componentType": 5126,
      "count": 4096,
      "max": [
        1.0,
        1.0,
        0.99971604347229
      ],
      "min": [
        -1.0,
        -1.0,
        -0.9997159838676453
      ],
      "type": "VEC3"
    },
    {
      "bufferView": 1,
      "byteOffset": 151832,
      "componentType": 5126,
      "count": 4096,
      "max": [
        0.0,
        0.0
      ],
      "min": [
        0.0,
        0.0
      ],
      "type": "VEC2"
    },
    {
      "bufferView": 0,
      "byteOffset": 422400,
      "componentType": 5125,
      "count": 24576,
      "type": "SCALAR"
    },
    {
      "bufferView": 2,
      "byteOffset": 553800,
      "componentType": 5126,
      "count": 2401,
      "max": [
        0.2503705322742462,
        0.2503705322742462,
        0.31893983483314514
      ],
      "min": [
        -0.2503705322742462,
        -0.2503705322742462,
        -0.0022212043404579163
      ],
      "type": "VEC3"
    },
    {
      "bufferView": 2,
      "byteOffset": 582612,
      "componentType": 5126,
      "count": 2401,
      "max": [
        0.9999939799308777,
        0.9999939799308777,
        1.0
      ],
      "min": [
        -0.9999939799308777,
        -0.9999939799308777,
        -0.996834397315979
      ],
      "type": "VEC3"
    },
    {
      "bufferView": 1,
      "byteOffset": 184600,
      "componentType": 5126,
      "count": 2401,
      "max": [
        0.0,
        0.0
      ],
      "min": [
        0.0,
        0.0
      ],
      "type": "VEC2"
    },
    {
      "bufferView": 0,
      "byteOffset": 520704,
      "componentType": 5125,
      "count": 14208,
      "type": "SCALAR"
    },
    {
      "bufferView": 2,
      "byteOffset": 611424,
      "componentType": 5126,
      "count": 18978,
      "max": [
        0.38648250699043274,
        0.32065659761428833,
        0.7825974822044373
      ],
      "min": [
        -0.3471889793872833,
        -0.5050088167190552,
        -0.030295278877019882
      ],
      "type": "VEC3"
    },
    {
      "bufferView": 2,
      "byteOffset": 839160,
      "componentType": 5126,
      "count": 18978,
      "max": [
        0.9999312162399292,
        1.0,
        0.9999998807907104
      ],
      "min": [
        -0.9999993443489075,
        -1.0,
        -1.0
      ],
      "type": "VEC3"
    },
    {
      "bufferView": 1,
      "byteOffset": 203808,
      "componentType": 5126,
      "count": 18978,
      "max": [
        1.000000238418579,
        1.000000238418579
      ],
      "min": [
        0.0,
        0.0
      ],
      "type": "VEC2"
    },
    {
      "bufferView": 0,
      "byteOffset": 577536,
      "componentType": 5125,
      "count": 105600,
      "type": "SCALAR"
    },
    {
      "bufferView": 2,
      "byteOffset": 1066896,
      "componentType": 5126,
      "count": 4096,
      "max": [
        0.21660511195659637,
        0.21660511195659637,
        0.058924272656440735
      ],
      "min": [
        -0.21660511195659637,
        -0.21660511195659637,
        0.00018612845451571047
      ],
      "type": "VEC3"
    },
    {
      "bufferView": 2,
      "byteOffset": 1116048,
      "componentType": 5126,
      "count": 4096,
      "max": [
        1.0,
        1.0,
        0.99971604347229
      ],
      "min": [
        -1.0,
        -1.0,
        -0.9997159838676453
      ],
      "type": "VEC3"
    },
    {
      "bufferView": 1,
      "byteOffset": 355632,
      "componentType": 5126,
      "count": 4096,
      "max": [
        0.0,
        0.0
      ],
      "min": [
        0.0,
        0.0
      ],
      "type": "VEC2"
    },
    {
      "bufferView": 0,
      "byteOffset": 999936,
      "componentType": 5125,
      "count": 24576,
      "type": "SCALAR"
    },
    {
      "bufferView": 2,
      "byteOffset": 1165200,
      "componentType": 5126,
      "count": 2401,
      "max": [
        0.2503705322742462,
        0.2503705322742462,
        0.31893983483314514
      ],
      "min": [
        -0.2503705322742462,
        -0.2503705322742462,
        -0.0022212043404579163
      ],
      "type": "VEC3"
    },
    {
      "bufferView": 2,
      "byteOffset": 1194012,
      "componentType": 5126,
      "count": 2401,
      "max": [
        0.9999939799308777,
        0.9999939799308777,
        1.0
      ],
      "min": [
        -0.9999939799308777,
        -0.9999939799308777,
        -0.996834397315979
      ],
      "type": "VEC3"
    },
    {
      "bufferView": 1,
      "byteOffset": 388400,
      "componentType": 5126,
      "count": 2401,
      "max": [
        0.0,
        0.0
      ],
      "min": [
        0.0,
        0.0
      ],
      "type": "VEC2"
    },
    {
      "bufferView": 0,
      "byteOffset": 1098240,
      "componentType": 5125,
      "count": 14208,
      "type": "SCALAR"
    },
    {
      "bufferView": 2,
      "byteOffset": 1222824,
      "componentType": 5126,
      "count": 20381,
      "max": [
        1.187549114227295,
        1.9662035703659058,
        0.985240638256073
      ],
      "min": [
        -1.205093264579773,
        -1.9652537107467651,
        -0.4709260165691376
      ],
      "type": "VEC3"
    },
    {
      "bufferView": 2,
      "byteOffset": 1467396,
      "componentType": 5126,
      "count": 20381,
      "max": [
        0.9999896287918091,
        1.0,
        1.0
      ],
      "min": [
        -0.9999887347221375,
        -1.0,
        -1.0
      ],
      "type": "VEC3"
    },
    {
      "bufferView": 1,
      "byteOffset": 407608,
      "componentType": 5126,
      "count": 20381,
      "max": [
        1.000000238418579,
        1.0000001192092896
      ],
      "min": [
        0.0,
        0.0
      ],
      "type": "VEC2"
    },
    {
      "bufferView": 0,
      "byteOffset": 1155072,
      "componentType": 5125,
      "count": 112896,
      "type": "SCALAR"
    },
    {
      "bufferView": 2,
      "byteOffset": 1711968,
      "componentType": 5126,
      "count": 4612,
      "max": [
        1.2188596725463867,
        1.9886595010757446,
        0.25034329295158386
      ],
      "min": [
        -1.2188597917556763,
        -1.9870351552963257,
        -0.22633644938468933
      ],
      "type": "VEC3"
    },
    {
      "bufferView": 2,
      "byteOffset": 1767312,
      "componentType": 5126,
      "count": 4612,
      "max": [
        0.9999694228172302,
        0.9999901652336121,
        1.0
      ],
      "min": [
        -0.9999694228172302,
        -0.9999901652336121,
        -1.0
      ],
      "type": "VEC3"
    },
    {
      "bufferView": 1,
      "byteOffset": 570656,
      "componentType": 5126,
      "count": 4612,
      "max": [
        1.0000001192092896,
        1.0000001192092896
      ],
      "min": [
        0.0,
        0.0
      ],
      "type": "VEC2"
    },
    {
      "bufferView": 0,
      "byteOffset": 1606656,
      "componentType": 5125,
      "count": 27648,
      "type": "SCALAR"
    },
    {
      "bufferView": 2,
      "byteOffset": 1822656,
      "componentType": 5126,
      "count": 11977,
      "max": [
        1.1702210903167725,
        1.9525800943374634,
        0.9274686574935913
      ],
      "min": [
        -1.170220971107483,
        -1.9186183214187622,
        -0.026339594274759293
      ],
      "type": "VEC3"
    },
    {
      "bufferView": 2,
      "byteOffset": 1966380,
      "componentType": 5126,
      "count": 11977,
      "max": [
        0.9999908208847046,
        0.9999983310699463,
        1.0
      ],
      "min": [
        -0.9999924898147583,
        -0.9999993443489075,
        -0.23952512443065643
      ],
      "type": "VEC3"
    },
    {
      "bufferView": 1,
      "byteOffset": 607552,
      "componentType": 5126,
      "count": 11977,
      "max": [
        1.000000238418579,
        1.000000238418579
      ],
      "min": [
        0.0,
        0.0
      ],
      "type": "VEC2"
    },
    {
      "bufferView": 0,
      "byteOffset": 1717248,
      "componentType": 5125,
      "count": 65856,
      "type": "SCALAR"
    }
  ],
  "asset": {
    "extras": {
      "author": "zedtha1 (https://sketchfab.com/guy707447)",
      "license": "CC-BY-4.0 (http://creativecommons.org/licenses/by/4.0/)",
      "source": "https://sketchfab.com/3d-models/wireless-earbuds-f0ff7a2113704bb79e96316cf50f9128",
      "title": "Wireless earbuds"
    },
    "generator": "Sketchfab-16.10.0",
    "version": "2.0"
  },
  "bufferViews": [
    {
      "buffer": 0,
      "byteLength": 1980672,
      "name": "floatBufferViews",
      "target": 34963
    },
    {
      "buffer": 0,
      "byteLength": 703368,
      "byteOffset": 1980672,
      "byteStride": 8,
      "name": "floatBufferViews",
      "target": 34962
    },
    {
      "buffer": 0,
      "byteLength": 2110104,
      "byteOffset": 2684040,
      "byteStride": 12,
      "name": "floatBufferViews",
      "target": 34962
    }
  ],
  "buffers": [
    {
      "byteLength": 4794144,
      "uri": "scene.bin"
    }
  ],
  "materials": [
    {
      "doubleSided": true,
      "name": "Material.001",
      "pbrMetallicRoughness": {
        "baseColorFactor": [
          0.0,
          0.0,
          0.0,
          1.0
        ],
        "metallicFactor": 0.0
      }
    },
    {
      "doubleSided": true,
      "name": "Material.003",
      "pbrMetallicRoughness": {
        "baseColorFactor": [
          0.0,
          0.8,
          0.11088,
          1.0
        ],
        "metallicFactor": 0.0,
        "roughnessFactor": 0.8702710423301399
      }
    },
    {
      "doubleSided": true,
      "name": "Material.004",
      "pbrMetallicRoughness": {
        "baseColorFactor": [
          0.0,
          0.0,
          0.0,
          1.0
        ],
        "metallicFactor": 0.0
      }
    },
    {
      "doubleSided": true,
      "name": "Material",
      "pbrMetallicRoughness": {
        "baseColorFactor": [
          0.0,
          0.0,
          0.0,
          1.0
        ],
        "metallicFactor": 0.0
      }
    }
  ],
  "meshes": [
    {
      "name": "Plane.001_Material.001_0",
      "primitives": [
        {
          "attributes": {
            "NORMAL": 1,
            "POSITION": 0,
            "TEXCOORD_0": 2
          },
          "indices": 3,
          "material": 0,
          "mode": 4
        }
      ]
    },
    {
      "name": "Circle.001_Material.003_0",
      "primitives": [
        {
          "attributes": {
            "NORMAL": 5,
            "POSITION": 4,
            "TEXCOORD_0": 6
          },
          "indices": 7,
          "material": 1,
          "mode": 4
        }
      ]
    },
    {
      "name": "Circle.004_Material.004_0",
      "primitives": [
        {
          "attributes": {
            "NORMAL": 9,
            "POSITION": 8,
            "TEXCOORD_0": 10
          },
          "indices": 11,
          "material": 2,
          "mode": 4
        }
      ]
    },
    {
      "name": "Plane.002_Material.001_0",
      "primitives": [
        {
          "attributes": {
            "NORMAL": 13,
            "POSITION": 12,
            "TEXCOORD_0": 14
          },
          "indices": 15,
          "material": 0,
          "mode": 4
        }
      ]
    },
    {
      "name": "Circle.002_Material.003_0",
      "primitives": [
        {
          "attributes": {
            "NORMAL": 17,
            "POSITION": 16,
            "TEXCOORD_0": 18
          },
          "indices": 19,
          "material": 1,
          "mode": 4
        }
      ]
    },
    {
      "name": "Circle.003_Material.004_0",
      "primitives": [
        {
          "attributes": {
            "NORMAL": 21,
            "POSITION": 20,
            "TEXCOORD_0": 22
          },
          "indices": 23,
          "material": 2,
          "mode": 4
        }
      ]
    },
    {
      "name": "Plane_Material_0",
      "primitives": [
        {
          "attributes": {
            "NORMAL": 25,
            "POSITION": 24,
            "TEXCOORD_0": 26
          },
          "indices": 27,
          "material": 3,
          "mode": 4
        }
      ]
    },
    {
      "name": "lid_Material_0",
      "primitives": [
        {
          "attributes": {
            "NORMAL": 29,
            "POSITION": 28,
            "TEXCOORD_0": 30
          },
          "indices": 31,
          "material": 3,
          "mode": 4
        }
      ]
    },
    {
      "name": "inerr case_Material.001_0",
      "primitives": [
        {
          "attributes": {
            "NORMAL": 33,
            "POSITION": 32,
            "TEXCOORD_0": 34
          },
          "indices": 35,
          "material": 0,
          "mode": 4
        }
      ]
    }
  ],
  "nodes": [
    {
      "children": [
        1
      ],
      "matrix": [
        1.0,
        0.0,
        0.0,
        0.0,
        0.0,
        2.220446049250313e-16,
        -1.0,
        0.0,
        0.0,
        1.0,
        2.220446049250313e-16,
        0.0,
        0.0,
        0.0,
        0.0,
        1.0
      ],
      "name": "Sketchfab_model"
    },
    {
      "children": [
        2
      ],
      "matrix": [
        0.009999999776482582,
        0.0,
        0.0,
        0.0,
        0.0,
        0.0,
        0.009999999776482582,
        0.0,
        0.0,
        -0.009999999776482582,
        0.0,
        0.0,
        0.0,
        0.0,
        0.0,
        1.0
      ],
      "name": "b48bf94cf0c84f18996c7ea60dcfa9c3.fbx"
    },
    {
      "children": [
        3
      ],
      "name": "RootNode"
    },
    {
      "children": [
        4,
        6,
        8,
        10,
        12,
        14,
        16,
        18,
        20
      ],
      "matrix": [
        258.0071105957031,
        0.0,
        0.0,
        0.0,
        0.0,
        -4.203469374617534e-05,
        -258.0071105956997,
        0.0,
        0.0,
        258.0071105956997,
        -4.203469374617534e-05,
        0.0,
        0.0,
        0.0,
        0.0,
        1.0
      ],
      "name": "controls everything"
    },
    {
      "children": [
        5
      ],
      "matrix": [
        0.38758623600006104,
        0.0,
        0.0,
        0.0,
        0.0,
        -0.3875862360000567,
        -5.852389342415209e-08,
        0.0,
        0.0,
        5.852389342415209e-08,
        -0.3875862360000567,
        0.0,
        -0.21632102131843567,
        -0.42582353949546814,
        -0.038482241332530975,
        1.0
      ],
      "name": "Plane.001"
    },
    {
      "mesh": 0,
      "name": "Plane.001_Material.001_0"
    },
    {
      "children": [
        7
      ],
      "matrix": [
        0.38758623600006104,
        0.0,
        0.0,
        0.0,
        0.0,
        -0.3875862360000567,
        -5.852389342415209e-08,
        0.0,
        0.0,
        5.852389342415209e-08,
        -0.3875862360000567,
        0.0,
        -0.15985234081745148,
        -0.32554763555526733,
        -0.2921121120452881,
        1.0
      ],
      "name": "Circle.001"
    },
    {
      "mesh": 1,
      "name": "Circle.001_Material.003_0"
    },
    {
      "children": [
        9
      ],
      "matrix": [
        0.38758623600006104,
        0.0,
        0.0,
        0.0,
        0.0,
        -0.3875862360000567,
        -5.852389342415209e-08,
        0.0,
        0.0,
        5.852389342415209e-08,
        -0.3875862360000567,
        0.0,
        -0.15985234081745148,
        -0.32554763555526733,
        -0.3133505880832672,
        1.0
      ],
      "name": "Circle.004"
    },
    {
      "mesh": 2,
      "name": "Circle.004_Material.004_0"
    },
    {
      "children": [
        11
      ],
      "matrix": [
        0.3875862360000552,
        5.852389342415188e-08,
        -3.388386491278781e-08,
        -0.0,
        -5.85238934241521e-08,
        0.38758623600005665,
        -3.441071343400092e-22,
        -0.0,
        -3.3883864912787424e-08,
        -5.116321603136694e-15,
        -0.3875862360000596,
        -0.0,
        -0.20477037131786346,
        0.4737401604652405,
        -0.027927981689572334,
        1.0
      ],
      "name": "Plane.002"
    },
    {
      "mesh": 3,
      "name": "Plane.002_Material.001_0"
    },
    {
      "children": [
        13
      ],
      "matrix": [
        0.3875862360000552,
        5.852389342415188e-08,
        -3.388386491278781e-08,
        -0.0,
        -5.85238934241521e-08,
        0.38758623600005665,
        -3.441071343400092e-22,
        -0.0,
        -3.3883864912787424e-08,
        -5.116321603136694e-15,
        -0.3875862360000596,
        -0.0,
        -0.14830169081687927,
        0.37346428632736206,
        -0.2815577983856201,
        1.0
      ],
      "name": "Circle.002"
    },
    {
      "mesh": 4,
      "name": "Circle.002_Material.003_0"
    },
    {
      "children": [
        15
      ],
      "matrix": [
        0.3875862360000552,
        5.852389342415188e-08,
        -3.388386491278781e-08,
        -0.0,
        -5.85238934241521e-08,
        0.38758623600005665,
        -3.441071343400092e-22,
        -0.0,
        -3.3883864912787424e-08,
        -5.116321603136694e-15,
        -0.3875862360000596,
        -0.0,
        -0.14830169081687927,
        0.37346428632736206,
        -0.30279630422592163,
        1.0
      ],
      "name": "Circle.003"
    },
    {
      "mesh": 5,
      "name": "Circle.003_Material.004_0"
    },
    {
      "children": [
        17
      ],
      "matrix": [
        0.38758623600006104,
        0.0,
        0.0,
        0.0,
        0.0,
        0.38758623600006104,
        -1.3234889800848438e-23,
        0.0,
        0.0,
        1.3234889800848438e-23,
        0.38758623600006104,
        0.0,
        -0.19133931398391724,
        0.047395266592502594,
        -0.5774543285369873,
        1.0
      ],
      "name": "Plane"
    },
    {
      "mesh": 6,
      "name": "Plane_Material_0"
    },
    {
      "children": [
        19
      ],
      "matrix": [
        0.38758623600006104,
        0.0,
        0.0,
        0.0,
        0.0,
        0.38758623600006104,
        -1.3234889800848438e-23,
        0.0,
        0.0,
        1.540700568272678e-23,
        0.4511970579624176,
        0.0,
        -0.19133931398391724,
        0.047395266592502594,
        -0.11287501454353333,
        1.0
      ],
      "name": "lid"
    },
    {
      "mesh": 7,
      "name": "lid_Material_0"
    },
    {
      "children": [
        21
      ],
      "matrix": [
        0.38418126106262207,
        0.0,
        0.0,
        0.0,
        0.0,
        0.38758623600006104,
        -1.3234889800848438e-23,
        0.0,
        0.0,
        1.3234889800848438e-23,
        0.38758623600006104,
        0.0,
        -0.19133931398391724,
        0.047395266592502594,
        -0.5774543285369873,
        1.0
      ],
      "name": "inerr case"
    },
    {
      "mesh": 8,
      "name": "inerr case_Material.001_0"
    }
  ],
  "scene": 0,
  "scenes": [
    {
      "name": "Sketchfab_Scene",
      "nodes": [
        0
      ]
    }
  ]
}
